<?xml version="1.0" standalone="no"?>
<!DOCTYPE svg PUBLIC "-//W3C//DTD SVG 20010904//EN"
 "http://www.w3.org/TR/2001/REC-SVG-20010904/DTD/svg10.dtd">
<svg version="1.0" xmlns="http://www.w3.org/2000/svg"
 width="539.000000pt" height="463.000000pt" viewBox="0 0 539.000000 463.000000"
 preserveAspectRatio="xMidYMid meet">

<g transform="translate(0.000000,463.000000) scale(0.100000,-0.100000)"
fill="#000000" stroke="none">
<path d="M1730 4014 c-191 -22 -412 -143 -546 -300 -55 -64 -102 -131 -128
-181 -29 -57 -10 -36 35 39 52 87 150 188 236 245 57 38 97 50 186 58 16 2 34
8 40 14 6 6 23 11 37 11 38 0 146 -37 189 -64 101 -65 246 -261 234 -318 -3
-17 -10 -25 -19 -21 -9 3 -14 -1 -14 -12 0 -14 -7 -15 -47 -8 -27 4 -104 8
-173 8 -144 0 -186 -14 -262 -83 -89 -83 -123 -193 -122 -402 2 -243 66 -570
167 -851 40 -111 40 -110 -48 -163 -87 -52 -98 -62 -91 -83 3 -10 -8 -2 -25
17 -87 98 -184 289 -257 505 -47 136 -76 280 -92 440 -7 76 -15 114 -26 125
-15 14 -15 7 -9 -80 7 -95 28 -265 41 -329 13 -63 -14 -24 -40 57 -43 137 -56
223 -57 384 -2 146 -2 149 -10 73 -17 -147 17 -403 78 -605 14 -47 52 -151 84
-232 33 -80 59 -153 59 -162 0 -9 5 -16 12 -16 6 0 9 -3 5 -6 -5 -6 68 -151
82 -164 4 -3 20 -25 36 -50 17 -25 33 -46 38 -48 4 -2 7 -10 7 -18 0 -8 14
-28 30 -46 17 -17 30 -35 30 -40 0 -5 6 -15 13 -23 6 -7 39 -45 72 -85 33 -39
93 -106 133 -147 39 -42 72 -81 72 -87 0 -7 3 -6 8 2 6 9 12 6 21 -10 6 -13
27 -34 47 -47 19 -13 33 -26 30 -28 -2 -3 17 -26 44 -51 142 -138 181 -172
192 -166 6 4 8 3 5 -3 -7 -11 37 -61 91 -103 18 -14 32 -30 32 -37 0 -7 6 -10
14 -7 7 3 23 -6 34 -20 11 -14 25 -26 31 -26 5 0 29 -18 51 -40 22 -22 49 -40
58 -40 15 0 15 -2 2 -10 -12 -8 -11 -10 5 -10 11 0 32 -12 45 -28 14 -15 36
-35 50 -44 20 -14 21 -16 5 -12 -11 3 15 -12 58 -34 43 -22 79 -43 79 -48 0
-5 14 -14 30 -21 23 -10 27 -10 21 0 -4 7 9 0 29 -15 19 -15 47 -29 61 -32 14
-2 34 -9 44 -14 42 -23 155 3 265 60 336 174 832 613 1140 1010 240 308 403
624 484 938 63 246 78 485 43 677 -19 101 -77 265 -123 346 -65 114 -188 257
-220 257 -3 0 -30 18 -60 41 -30 22 -57 41 -60 40 -3 0 -32 13 -64 29 -32 16
-71 32 -88 35 -16 4 -38 11 -49 16 -11 5 -63 18 -115 28 -158 32 -326 19 -480
-36 -50 -18 -194 -101 -255 -148 -100 -75 -274 -185 -315 -198 -49 -16 -113
-21 -105 -8 7 12 -65 60 -103 67 -17 4 -32 11 -32 16 0 6 -7 7 -16 4 -12 -5
-15 -2 -10 10 4 11 1 14 -12 12 -9 -2 -26 7 -38 19 -11 12 -38 31 -60 41 -21
9 -58 30 -82 45 -41 27 -224 118 -253 126 -8 2 -59 17 -114 33 -98 28 -231 42
-315 32z m1716 -143 c45 -27 59 -76 59 -203 0 -58 -3 -109 -6 -112 -3 -3 -44
-17 -90 -31 -110 -33 -211 -82 -334 -164 -132 -89 -170 -106 -230 -105 -61 0
-136 31 -127 53 3 9 1 12 -6 7 -16 -10 -15 9 3 43 8 16 25 61 39 102 l24 73
52 13 c54 14 121 49 157 83 12 11 28 20 34 20 7 0 34 14 61 31 48 31 66 49 27
29 -48 -26 -23 1 48 52 190 136 224 149 289 109z m666 -7 c211 -107 300 -221
374 -477 25 -89 36 -148 39 -221 3 -55 7 -101 10 -104 3 -3 5 -19 4 -36 0 -26
-2 -28 -9 -11 -7 15 -9 10 -10 -25 -1 -25 -5 -56 -9 -70 -4 -14 -6 18 -5 72 2
73 0 99 -11 108 -8 6 -11 18 -8 26 3 8 2 22 -2 32 -4 9 -9 30 -11 45 -7 52
-32 87 -62 87 -15 0 -34 5 -42 11 -13 9 -12 10 3 5 11 -3 17 0 17 9 0 8 7 15
15 15 28 0 28 30 -1 118 -55 172 -135 272 -287 362 -33 19 -64 45 -68 58 -11
29 0 28 63 -4z m-1597 -234 c3 -6 -1 -7 -9 -4 -18 7 -21 14 -7 14 6 0 13 -4
16 -10z m2005 -826 c-7 -68 -7 -100 0 -102 11 -4 10 -8 -15 -117 -24 -102 -45
-174 -66 -222 -11 -24 -19 -47 -19 -52 0 -18 -75 -189 -128 -291 -52 -100
-138 -228 -247 -370 -27 -36 -52 -67 -55 -70 -3 -3 -38 -42 -79 -88 -40 -45
-75 -81 -78 -79 -2 2 1 15 6 28 5 13 10 17 10 9 1 -8 17 8 36 35 20 28 40 52
46 53 5 2 16 17 24 32 8 16 38 59 66 96 28 38 56 80 63 94 6 14 18 33 28 44 9
10 22 31 28 47 7 16 17 29 22 29 6 0 7 8 4 17 -4 10 -4 14 0 10 7 -7 22 14 49
71 8 17 20 32 26 32 6 0 8 9 4 21 -5 15 -4 19 5 14 7 -4 10 -2 8 7 -1 7 7 27
19 43 12 17 38 73 58 125 20 52 45 117 56 144 10 26 17 52 14 56 -3 5 -2 10 2
12 5 1 21 55 37 118 16 63 35 130 44 147 8 18 15 60 16 93 0 33 4 60 9 60 4 0
7 14 7 32 0 17 3 29 6 26 3 -3 0 -50 -6 -104z m-2770 -1391 c0 -8 -9 0 -50 45
l-45 47 48 -45 c26 -24 47 -45 47 -47z m2070 -17 c0 -2 -7 -9 -15 -16 -13 -11
-14 -10 -9 4 5 14 24 23 24 12z m-1839 -202 c75 -74 134 -134 130 -134 -12 0
-318 288 -325 306 -9 24 40 -19 195 -172z m1799 162 c0 -2 -8 -10 -17 -17 -16
-13 -17 -12 -4 4 13 16 21 21 21 13z"/>
<path d="M3154 3734 c-18 -14 -18 -15 4 -4 12 6 22 13 22 15 0 8 -5 6 -26 -11z"/>
<path d="M4408 3313 c6 -2 18 -2 25 0 6 3 1 5 -13 5 -14 0 -19 -2 -12 -5z"/>
<path d="M4512 3160 c0 -19 2 -27 5 -17 2 9 2 25 0 35 -3 9 -5 1 -5 -18z"/>
<path d="M1434 3845 c-10 -8 -14 -15 -7 -15 19 0 43 11 43 21 0 13 -14 11 -36
-6z"/>
<path d="M1001 3421 c-29 -69 -26 -78 5 -12 13 30 23 56 20 58 -2 2 -13 -19
-25 -46z"/>
<path d="M952 3250 c0 -14 2 -19 5 -12 2 6 2 18 0 25 -3 6 -5 1 -5 -13z"/>
<path d="M942 3200 c0 -14 2 -19 5 -12 2 6 2 18 0 25 -3 6 -5 1 -5 -13z"/>
</g>
</svg>
